<svg width="24" height="24" viewBox="0 0 24 24" fill="none" xmlns="http://www.w3.org/2000/svg">
<path fill-rule="evenodd" clip-rule="evenodd" d="M20.9573 3.87485C21.0024 3.75863 21.0127 3.6318 20.987 3.50981C20.9613 3.38782 20.9007 3.27594 20.8125 3.18779C20.7244 3.09964 20.6125 3.03902 20.4905 3.01332C20.3685 2.98762 20.2417 2.99794 20.1254 3.04304L3.412 9.47129C3.29373 9.51679 3.19155 9.59623 3.1183 9.69962C3.04505 9.80302 3.00398 9.92576 3.00028 10.0524C2.99657 10.1791 3.03037 10.304 3.09745 10.4115C3.16453 10.519 3.26189 10.6043 3.37729 10.6567L10.2298 13.7718L13.3436 20.623C13.396 20.7384 13.4813 20.8358 13.5888 20.9028C13.6963 20.9699 13.8212 21.0037 13.9479 21C14.0745 20.9963 14.1973 20.9553 14.3007 20.882C14.4041 20.8087 14.4835 20.7066 14.529 20.5883L20.9573 3.87485Z" fill="#8098AE"/>
<path fill-rule="evenodd" clip-rule="evenodd" d="M10.6553 14.7089L14.61 10.7529C14.7803 10.5701 14.873 10.3284 14.8686 10.0786C14.8642 9.82877 14.763 9.59043 14.5864 9.41377C14.4097 9.2371 14.1714 9.13591 13.9216 9.1315C13.6718 9.12709 13.43 9.21982 13.2472 9.39014L9.29126 13.3448L10.2298 13.7716L10.6553 14.7089Z" fill="#00315C"/>
</svg>
