<svg width="56" height="56" viewBox="0 0 56 56" fill="none" xmlns="http://www.w3.org/2000/svg">
<path d="M23.0534 53.783C20.1834 49.7603 18.0437 42.9727 17.2504 34.981M23.0534 2.33301C21.1027 5.00467 19.488 9.05301 18.4054 13.9017M32.9467 53.783C35.798 49.7883 37.9284 43.0637 38.7334 35.1397M32.9467 2.33301C35.3897 5.67901 37.3054 11.1857 38.3087 17.7143" stroke="#00B3FF" stroke-width="1.39806" stroke-linecap="round" stroke-linejoin="round"/>
<path d="M4.78337 15.7502C23.4594 12.1779 33.5697 12.1592 51.2167 15.7502M51.2167 40.2502C32.543 43.8249 22.4327 43.8412 4.78337 40.2502M2.33337 28.0119H15.4934C15.6532 28.0133 15.8102 27.969 15.9457 27.8842C16.0813 27.7995 16.1899 27.6778 16.2587 27.5336L20.265 19.4019C20.3398 19.2513 20.4569 19.1258 20.602 19.0408C20.7471 18.9559 20.9138 18.9151 21.0817 18.9236C21.2499 18.932 21.4117 18.9907 21.5461 19.0923C21.6805 19.1938 21.7813 19.3334 21.8354 19.4929L27.2744 34.6712C27.3305 34.8356 27.4349 34.9791 27.574 35.0832C27.713 35.1873 27.8802 35.247 28.0537 35.2546C28.228 35.262 28.4002 35.215 28.5466 35.1201C28.6929 35.0252 28.8061 34.887 28.8704 34.7249L34.1204 22.7502C34.1861 22.6018 34.2923 22.4749 34.4269 22.3841C34.5614 22.2933 34.7188 22.2423 34.881 22.2369C35.044 22.2319 35.205 22.2745 35.3442 22.3594C35.4834 22.4444 35.5949 22.568 35.665 22.7152L38.038 27.5336C38.1092 27.6765 38.2187 27.7969 38.3542 27.8813C38.4897 27.9657 38.646 28.0109 38.8057 28.0119H53.6667" stroke="#00B3FF" stroke-width="1.39806" stroke-linecap="round" stroke-linejoin="round"/>
<path d="M53.6364 22.3347C51.0464 10.5607 40.5534 1.75 28 1.75C15.4467 1.75 4.95371 10.5607 2.36371 22.3347M53.6364 33.6653C51.0464 45.4393 40.5534 54.25 28 54.25C15.4467 54.25 4.95371 45.4393 2.36371 33.6653" stroke="#00B3FF" stroke-width="1.39806" stroke-linecap="round" stroke-linejoin="round"/>
</svg>
