<svg width="56" height="56" viewBox="0 0 56 56" fill="none" xmlns="http://www.w3.org/2000/svg">
<g clip-path="url(#clip0_2125_2921)">
<path d="M45.9187 25.7811L42.2538 18.4599C42.1526 18.2575 42.0126 18.077 41.8418 17.9287C41.6709 17.7804 41.4725 17.6673 41.2578 17.5957C41.0432 17.5241 40.8166 17.4955 40.5909 17.5115C40.3652 17.5275 40.1449 17.5878 39.9425 17.689L36.1785 19.5638L28.4438 17.5196C28.3497 17.4946 28.2508 17.4946 28.1567 17.5196L20.422 19.5638L16.658 17.6818C16.4556 17.5806 16.2353 17.5203 16.0096 17.5043C15.7839 17.4883 15.5573 17.5169 15.3427 17.5885C15.1281 17.6601 14.9296 17.7732 14.7587 17.9215C14.5879 18.0698 14.4479 18.2503 14.3467 18.4527L10.6818 25.7811C10.5806 25.9835 10.5203 26.2038 10.5043 26.4295C10.4883 26.6552 10.5169 26.8818 10.5885 27.0964C10.6601 27.3111 10.7732 27.5095 10.9215 27.6804C11.0698 27.8512 11.2503 27.9912 11.4527 28.0924L15.3703 30.0519L23.3735 35.7682C23.4318 35.81 23.4975 35.8403 23.5673 35.8572L32.7548 38.1541C32.8503 38.1792 32.9508 38.1791 33.0463 38.1539C33.1419 38.1288 33.2294 38.0794 33.3003 38.0106L41.2733 30.0375L45.1493 28.0995C45.3517 27.9984 45.5321 27.8584 45.6804 27.6875C45.8287 27.5166 45.9418 27.3182 46.0134 27.1036C46.085 26.889 46.1136 26.6624 46.0976 26.4367C46.0816 26.211 46.0213 25.9907 45.9202 25.7883L45.9187 25.7811ZM38.5974 31.0855L33.2572 26.8076C33.1466 26.7189 33.0072 26.6742 32.8656 26.6821C32.7241 26.6901 32.5905 26.7501 32.4906 26.8506C29.6927 29.67 26.5561 29.3068 24.5535 28.0278C24.4798 27.9805 24.4176 27.9172 24.3717 27.8427C24.3257 27.7681 24.2971 27.6842 24.2879 27.5971C24.2781 27.5133 24.2873 27.4283 24.3149 27.3485C24.3425 27.2687 24.3877 27.1962 24.4472 27.1363L30.8297 20.9448H35.9847L40.234 29.4447L38.5974 31.0855ZM11.6781 26.7329C11.6321 26.5907 11.6435 26.4362 11.7096 26.3022L15.3803 18.9666C15.4274 18.8718 15.4998 18.7919 15.5895 18.7356C15.6792 18.6794 15.7827 18.649 15.8885 18.6479C15.9773 18.6484 16.0648 18.6696 16.144 18.7096L19.5894 20.4323L15.4105 28.7886L11.9652 27.066C11.8978 27.032 11.8377 26.9851 11.7885 26.928C11.7392 26.8709 11.7017 26.8046 11.6781 26.7329ZM32.7174 36.9612L23.952 34.7691L16.401 29.3757L20.7565 20.6577L28.3003 18.668L32.5667 19.7963H30.5971C30.4476 19.7962 30.3039 19.8544 30.1966 19.9586L23.6362 26.3223C23.4536 26.5049 23.3144 26.7262 23.2289 26.9698C23.1433 27.2135 23.1137 27.4732 23.1421 27.7299C23.1705 27.9865 23.2562 28.2335 23.3929 28.4525C23.5296 28.6716 23.7138 28.8571 23.9319 28.9953C26.7857 30.8199 30.267 30.4309 32.927 28.0177L37.7749 31.9023L32.7174 36.9612ZM44.9196 26.7329C44.896 26.8046 44.8584 26.8709 44.8092 26.928C44.7599 26.9851 44.6999 27.032 44.6325 27.066L41.1872 28.7886L37.0111 20.4323L40.4565 18.7096C40.592 18.6436 40.7481 18.6336 40.891 18.6817C41.0338 18.7297 41.1521 18.8321 41.2202 18.9666L44.8851 26.2951C44.9551 26.4303 44.9686 26.5878 44.9224 26.7329H44.9196ZM28.2916 41.186C28.2598 41.3094 28.1877 41.4187 28.0869 41.4967C27.986 41.5747 27.8621 41.6169 27.7346 41.6167C27.6863 41.617 27.638 41.6112 27.5911 41.5994L21.6077 40.1022C21.5376 40.085 21.4714 40.0548 21.4125 40.0132L17.6313 37.31C17.5073 37.2215 17.4237 37.0874 17.3986 36.9371C17.3736 36.7869 17.4092 36.6329 17.4978 36.509C17.5863 36.3851 17.7204 36.3014 17.8706 36.2763C18.0209 36.2513 18.1749 36.287 18.2988 36.3755L21.991 39.0126L27.8768 40.484C27.9503 40.5026 28.0194 40.5355 28.0801 40.5809C28.1408 40.6263 28.1919 40.6833 28.2304 40.7486C28.269 40.8138 28.2943 40.8861 28.3048 40.9612C28.3153 41.0362 28.3108 41.1127 28.2916 41.186Z" fill="#00B3FF"/>
<circle cx="28" cy="28" r="27.301" stroke="#00B3FF" stroke-width="1.39806"/>
</g>
<defs>
<clipPath id="clip0_2125_2921">
<rect width="56" height="56" fill="white"/>
</clipPath>
</defs>
</svg>
