<svg width="24" height="24" viewBox="0 0 24 24" fill="none" xmlns="http://www.w3.org/2000/svg">
<path opacity="0.5" d="M6.26 21.388H6C5.057 21.388 4.586 21.388 4.293 21.095C4 20.804 4 20.332 4 19.389V18.277C4 17.759 4 17.5 4.133 17.268C4.266 17.036 4.467 16.92 4.869 16.686C7.515 15.147 11.272 14.281 13.779 15.776C13.9477 15.8766 14.0977 15.9993 14.229 16.144C14.3636 16.291 14.4672 16.4636 14.5339 16.6514C14.6006 16.8393 14.6289 17.0386 14.6171 17.2376C14.6054 17.4366 14.5538 17.6312 14.4655 17.8099C14.3772 17.9886 14.2539 18.1478 14.103 18.278C13.9828 18.3921 13.836 18.4746 13.676 18.518C13.796 18.504 13.911 18.4883 14.021 18.471C14.932 18.326 15.697 17.838 16.397 17.309L18.205 15.944C18.5277 15.7098 18.9163 15.5837 19.315 15.5837C19.7137 15.5837 20.1023 15.7098 20.425 15.944C20.998 16.377 21.174 17.09 20.811 17.672C20.388 18.35 19.792 19.217 19.22 19.747C18.648 20.277 17.794 20.751 17.098 21.087C16.326 21.46 15.474 21.674 14.607 21.815C12.849 22.099 11.017 22.055 9.277 21.697C8.28432 21.4926 7.27349 21.3884 6.26 21.388Z" fill="white"/>
<path d="M10.861 3.363C11.368 2.454 11.621 2 12 2C12.379 2 12.632 2.454 13.139 3.363L13.269 3.598C13.414 3.857 13.486 3.986 13.598 4.071C13.71 4.156 13.85 4.188 14.13 4.251L14.384 4.309C15.368 4.531 15.86 4.643 15.977 5.019C16.094 5.395 15.759 5.788 15.088 6.572L14.914 6.775C14.724 6.998 14.629 7.109 14.586 7.247C14.543 7.385 14.557 7.534 14.586 7.831L14.612 8.101C14.714 9.148 14.764 9.671 14.458 9.904C14.152 10.137 13.691 9.924 12.77 9.5L12.531 9.39C12.27 9.27 12.139 9.21 12 9.21C11.861 9.21 11.73 9.27 11.469 9.39L11.23 9.5C10.31 9.925 9.84805 10.137 9.54205 9.904C9.23605 9.671 9.28605 9.148 9.38805 8.102L9.41405 7.831C9.44305 7.534 9.45705 7.385 9.41405 7.247C9.37105 7.109 9.27605 6.997 9.08605 6.775L8.91205 6.572C8.24205 5.788 7.90605 5.395 8.02305 5.019C8.14005 4.643 8.63205 4.531 9.61605 4.309L9.87005 4.251C10.15 4.188 10.29 4.156 10.402 4.071C10.514 3.986 10.586 3.857 10.73 3.598L10.861 3.363ZM19.43 7.682C19.684 7.227 19.81 7 20 7C20.19 7 20.316 7.227 20.57 7.682L20.635 7.799C20.707 7.929 20.743 7.993 20.799 8.036C20.855 8.079 20.925 8.094 21.065 8.126L21.192 8.154C21.684 8.266 21.93 8.321 21.988 8.51C22.046 8.699 21.879 8.894 21.544 9.286L21.457 9.387C21.362 9.499 21.314 9.555 21.293 9.624C21.272 9.693 21.279 9.767 21.293 9.916L21.306 10.051C21.356 10.574 21.382 10.836 21.229 10.952C21.076 11.068 20.846 10.962 20.385 10.75L20.265 10.695C20.135 10.635 20.069 10.605 20 10.605C19.93 10.605 19.865 10.635 19.734 10.695L19.615 10.75C19.155 10.962 18.925 11.068 18.771 10.952C18.618 10.836 18.643 10.574 18.694 10.051L18.707 9.916C18.721 9.766 18.729 9.692 18.707 9.624C18.686 9.554 18.638 9.499 18.543 9.387L18.456 9.286C18.121 8.894 17.953 8.698 18.012 8.51C18.071 8.322 18.316 8.266 18.808 8.154L18.935 8.126C19.075 8.094 19.145 8.078 19.201 8.036C19.257 7.993 19.293 7.928 19.365 7.799L19.43 7.682ZM3.43005 7.682C3.68505 7.227 3.81005 7 4.00005 7C4.19005 7 4.31605 7.227 4.57005 7.682L4.63505 7.799C4.70705 7.929 4.74305 7.993 4.79905 8.036C4.85505 8.079 4.92505 8.094 5.06505 8.126L5.19205 8.154C5.68405 8.266 5.93005 8.321 5.98905 8.51C6.04705 8.698 5.87905 8.894 5.54405 9.286L5.45705 9.387C5.36205 9.499 5.31405 9.555 5.29305 9.624C5.27205 9.693 5.27905 9.767 5.29305 9.916L5.30605 10.051C5.35605 10.574 5.38205 10.836 5.22905 10.952C5.07605 11.068 4.84505 10.962 4.38505 10.75L4.26505 10.695C4.13505 10.635 4.06905 10.605 4.00005 10.605C3.93005 10.605 3.86505 10.635 3.73405 10.695L3.61505 10.75C3.15505 10.962 2.92505 11.068 2.77105 10.952C2.61805 10.836 2.64305 10.574 2.69405 10.051L2.70705 9.916C2.72105 9.766 2.72905 9.692 2.70705 9.624C2.68605 9.554 2.63805 9.499 2.54305 9.387L2.45605 9.286C2.12105 8.894 1.95305 8.698 2.01105 8.51C2.07005 8.321 2.31605 8.266 2.80805 8.154L2.93505 8.126C3.07505 8.094 3.14505 8.078 3.20105 8.036C3.25705 7.993 3.29305 7.928 3.36505 7.799L3.43005 7.682Z" fill="white"/>
</svg>
