<svg width="56" height="56" viewBox="0 0 56 56" fill="none" xmlns="http://www.w3.org/2000/svg">
<path d="M12.4863 35.875C11.4639 33.5642 10.9363 31.065 10.9375 28.5381C10.9375 18.8177 18.5763 10.9375 28 10.9375C37.4238 10.9375 45.0625 18.8204 45.0625 28.5407C45.0633 31.0667 44.5358 33.565 43.5138 35.875" stroke="#00B3FF" stroke-width="1.39806" stroke-linecap="round"/>
<path d="M28 1.75V4.375M54.25 28H51.625M4.37501 28H1.75001M46.5587 9.436L44.7029 11.2919M11.2971 11.2945L9.44126 9.43862M34.6071 47.1782C37.2584 46.3199 38.3241 43.8917 38.6234 41.4505C38.7126 40.7207 38.1115 40.1144 37.3765 40.1144H18.7521C18.5726 40.1115 18.3946 40.1468 18.2298 40.2179C18.0649 40.289 17.9171 40.3943 17.796 40.5268C17.6749 40.6593 17.5833 40.816 17.5273 40.9866C17.4713 41.1571 17.4522 41.3376 17.4711 41.5161C17.7651 43.9521 18.5054 45.7345 21.3141 47.1782M34.6071 47.1782H21.3141M34.6071 47.1782C34.2895 52.2839 32.8142 54.3051 28.0184 54.2474C22.8891 54.3419 21.7079 51.8429 21.3141 47.1782" stroke="#00B3FF" stroke-width="1.39806" stroke-linecap="round" stroke-linejoin="round"/>
</svg>
