<svg width="24" height="24" viewBox="0 0 24 24" fill="none" xmlns="http://www.w3.org/2000/svg">
<path d="M18.0636 0H5.3364C3.9211 0 2.56376 0.562226 1.563 1.563C0.562226 2.56376 0 3.9211 0 5.3364V18.0636C0 19.4789 0.562226 20.8362 1.563 21.837C2.56376 22.8378 3.9211 23.4 5.3364 23.4H18.0636C19.4789 23.4 20.8362 22.8378 21.837 21.837C22.8378 20.8362 23.4 19.4789 23.4 18.0636V5.3364C23.4 3.9211 22.8378 2.56376 21.837 1.563C20.8362 0.562226 19.4789 0 18.0636 0ZM7.9116 18.8904C7.91536 18.9557 7.90573 19.0211 7.8833 19.0826C7.86087 19.144 7.82611 19.2003 7.78115 19.2478C7.7362 19.2953 7.68201 19.3332 7.62189 19.359C7.56178 19.3848 7.49703 19.3981 7.4316 19.398H5.2956C5.16679 19.3949 5.04435 19.3413 4.95459 19.2489C4.86484 19.1564 4.81493 19.0324 4.8156 18.9036V10.02C4.81384 9.95586 4.82495 9.89202 4.84828 9.83226C4.87161 9.77249 4.90669 9.718 4.95143 9.67202C4.99618 9.62604 5.0497 9.5895 5.10881 9.56456C5.16792 9.53961 5.23144 9.52678 5.2956 9.5268H7.4316C7.49576 9.52678 7.55928 9.53961 7.61839 9.56456C7.6775 9.5895 7.73102 9.62604 7.77576 9.67202C7.82051 9.718 7.85559 9.77249 7.87892 9.83226C7.90225 9.89202 7.91336 9.95586 7.9116 10.02V18.8904ZM6.324 7.6584C6.09274 7.65667 5.86409 7.6094 5.6511 7.5193C5.43811 7.4292 5.24495 7.29803 5.08265 7.13328C4.92035 6.96853 4.79209 6.77343 4.7052 6.55911C4.6183 6.34479 4.57447 6.11546 4.5762 5.8842C4.57793 5.65294 4.6252 5.42429 4.7153 5.2113C4.8054 4.99831 4.93657 4.80515 5.10132 4.64285C5.26607 4.48055 5.46117 4.35229 5.67549 4.2654C5.88981 4.1785 6.11914 4.13467 6.3504 4.1364C6.80942 4.15133 7.24443 4.34505 7.56262 4.67623C7.88081 5.00741 8.05697 5.44982 8.05353 5.90907C8.05009 6.36832 7.8673 6.80805 7.54418 7.13442C7.22106 7.46079 6.78319 7.64796 6.324 7.656M19.3044 18.876C19.3038 18.9972 19.2562 19.1135 19.1716 19.2004C19.087 19.2872 18.972 19.3379 18.8508 19.3416H16.596C16.4746 19.3379 16.3594 19.2871 16.2748 19.2C16.1901 19.1129 16.1427 18.9963 16.1424 18.8748V14.766C16.1424 14.1528 16.3296 12.0984 14.5152 12.0984C13.1004 12.0984 12.8208 13.5384 12.7668 14.1792V18.9684C12.7669 19.0901 12.7195 19.207 12.6349 19.2943C12.5502 19.3817 12.4348 19.4327 12.3132 19.4364H10.1256C10.0017 19.4361 9.88296 19.3866 9.79545 19.2989C9.70794 19.2112 9.6588 19.0923 9.6588 18.9684V9.9768C9.66254 9.85519 9.7135 9.73982 9.80086 9.65514C9.88823 9.57047 10.0051 9.52314 10.1268 9.5232H12.3132C12.4349 9.52314 12.5518 9.57047 12.6391 9.65514C12.7265 9.73982 12.7775 9.85519 12.7812 9.9768V10.7508C13.1004 10.2835 13.5412 9.91232 14.0559 9.67716C14.5706 9.442 15.1398 9.35184 15.702 9.4164C19.344 9.4164 19.3308 12.8184 19.3308 14.7528L19.3044 18.876Z" fill="#00315C"/>
</svg>
