<svg width="24" height="24" viewBox="0 0 24 24" fill="none" xmlns="http://www.w3.org/2000/svg">
<path opacity="0.5" d="M12 22C17.523 22 22 17.523 22 12C22 6.477 17.523 2 12 2C6.477 2 2 6.477 2 12C2 17.523 6.477 22 12 22Z" fill="white"/>
<path fill-rule="evenodd" clip-rule="evenodd" d="M12.47 11.53C12.3295 11.3894 12.2506 11.1988 12.2506 11C12.2506 10.8012 12.3295 10.6106 12.47 10.47L20.19 2.75H16.656C16.457 2.75 16.2663 2.67098 16.1256 2.53033C15.985 2.38968 15.906 2.19891 15.906 2C15.906 1.80109 15.985 1.61032 16.1256 1.46967C16.2663 1.32902 16.457 1.25 16.656 1.25H22C22.1989 1.25 22.3896 1.32902 22.5303 1.46967C22.6709 1.61032 22.75 1.80109 22.75 2V7.344C22.75 7.54291 22.6709 7.73368 22.5303 7.87433C22.3896 8.01498 22.1989 8.094 22 8.094C21.801 8.094 21.6103 8.01498 21.4696 7.87433C21.329 7.73368 21.25 7.54291 21.25 7.344V3.81L13.53 11.53C13.3893 11.6705 13.1987 11.7493 13 11.7493C12.8012 11.7493 12.6106 11.6705 12.47 11.53Z" fill="white"/>
</svg>
