<svg width="56" height="56" viewBox="0 0 56 56" fill="none" xmlns="http://www.w3.org/2000/svg">
<path d="M27.8232 0.868164C34.6959 5.93122 43.1625 8.94572 52.3262 9.0918V30.7754C52.1461 34.0129 51.193 37.1604 49.5469 39.9541C47.9009 42.7474 45.6095 45.1048 42.8652 46.8311L27.8242 55.1992L12.79 46.835C10.0433 45.1084 7.74958 42.7494 6.10254 39.9541C4.45642 37.1604 3.50427 34.0129 3.32422 30.7754V9.0918C12.4882 8.94438 20.9527 5.904 27.8232 0.868164ZM27.165 14.1064L24.0479 23.0557L14.5654 23.2695L12.5576 23.3145L14.1592 24.5254L21.6943 30.2236L18.9521 39.2773L18.375 41.1826L20.0166 40.0566L27.8408 34.6885L35.6006 40.1094L37.2529 41.2637L36.6699 39.334L33.9258 30.251L41.4912 24.5254L43.0908 23.3145L41.085 23.2695L31.6006 23.0557L28.4854 14.1064L27.8252 12.21L27.165 14.1064Z" stroke="#00B3FF" stroke-width="1.39806"/>
</svg>
