<svg width="59" height="58" viewBox="0 0 59 58" fill="none" xmlns="http://www.w3.org/2000/svg">
<path d="M29.3981 46.0243C29.3981 45.6382 29.0851 45.3252 28.699 45.3252C28.313 45.3252 28 45.6382 28 46.0243H28.699H29.3981ZM28 55.8243C28 56.2103 28.313 56.5233 28.699 56.5233C29.0851 56.5233 29.3981 56.2103 29.3981 55.8243H28.699H28ZM43.7492 28.0002C43.3631 28.0002 43.0502 28.3132 43.0502 28.6992C43.0502 29.0853 43.3631 29.3982 43.7492 29.3982V28.6992V28.0002ZM54.9492 29.3982C55.3353 29.3982 55.6482 29.0853 55.6482 28.6992C55.6482 28.3132 55.3353 28.0002 54.9492 28.0002V28.6992V29.3982ZM1.57403 28.0002C1.18796 28.0002 0.874999 28.3132 0.874999 28.6992C0.874999 29.0853 1.18796 29.3982 1.57403 29.3982V28.6992V28.0002ZM11.374 29.3982C11.7601 29.3982 12.0731 29.0853 12.0731 28.6992C12.0731 28.3132 11.7601 28.0002 11.374 28.0002V28.6992V29.3982ZM28 11.3742C28 11.7603 28.313 12.0732 28.699 12.0732C29.0851 12.0732 29.3981 11.7603 29.3981 11.3742H28.699H28ZM29.3981 1.57422C29.3981 1.18816 29.0851 0.87519 28.699 0.87519C28.313 0.87519 28 1.18816 28 1.57422H28.699H29.3981ZM56.699 28.6992H56C56 43.7771 43.7769 56.0002 28.699 56.0002V56.6992V57.3982C44.5491 57.3982 57.3981 44.5493 57.3981 28.6992H56.699ZM28.699 56.6992V56.0002C13.6211 56.0002 1.39806 43.7771 1.39806 28.6992H0.699028H-1.13249e-06C-1.13249e-06 44.5493 12.849 57.3982 28.699 57.3982V56.6992ZM0.699028 28.6992H1.39806C1.39806 13.6213 13.6211 1.39825 28.699 1.39825V0.699219V0.000189602C12.849 0.000189602 -1.13249e-06 12.8492 -1.13249e-06 28.6992H0.699028ZM28.699 0.699219V1.39825C43.7769 1.39825 56 13.6213 56 28.6992H56.699H57.3981C57.3981 12.8492 44.5491 0.000189602 28.699 0.000189602V0.699219ZM28.699 46.8992H28V56.6992H28.699H29.3981V46.8992H28.699ZM28.699 46.0243H28V55.8243H28.699H29.3981V46.0243H28.699ZM45.499 28.6992V29.3982H56.699V28.6992V28.0002H45.499V28.6992ZM43.7492 28.6992V29.3982H54.9492V28.6992V28.0002H43.7492V28.6992ZM0.699028 28.6992V29.3982H10.499V28.6992V28.0002H0.699028V28.6992ZM1.57403 28.6992V29.3982H11.374V28.6992V28.0002H1.57403V28.6992ZM28.699 10.4992H29.3981V0.699219H28.699H28V10.4992H28.699ZM28.699 11.3742H29.3981V1.57422H28.699H28V11.3742H28.699Z" fill="#00B3FF"/>
<rect x="14.699" y="14.6992" width="28" height="28" rx="14" stroke="#00B3FF" stroke-width="1.39806"/>
<path d="M41.2559 25.1802C39.9936 27.2019 36.9793 28.2702 32.0891 27.316L31.4731 27.1958L31.353 26.5799C30.3996 21.6895 31.4675 18.6753 33.4888 17.4131C35.0592 16.4326 37.0092 16.6958 38.2093 17.8205L42.947 13.0827L42.9457 8.57491L42.9463 8.57422C42.9463 8.07919 43.1426 7.6047 43.4926 7.25461C43.8427 6.90449 44.3177 6.7077 44.8129 6.70771C45.0831 6.70773 45.3465 6.76744 45.5876 6.87758L45.587 5.93362C45.587 5.43847 45.7837 4.96344 46.1339 4.61332C46.484 4.26319 46.959 4.06641 47.4542 4.06641C47.7246 4.06647 47.9883 4.12659 48.2296 4.23697L48.2282 3.29232C48.2282 2.79717 48.425 2.32215 48.7751 1.97202C49.1252 1.62206 49.5997 1.42582 50.0948 1.42581C50.5898 1.42581 51.0643 1.62207 51.4144 1.97202C51.7645 2.32215 51.9613 2.79717 51.9613 3.29232V6.70771H55.3767C55.6218 6.70771 55.8648 6.75544 56.0914 6.84926C56.3179 6.94309 56.5236 7.08125 56.697 7.25461C56.8701 7.42786 57.0078 7.63321 57.1016 7.85952C57.1954 8.08603 57.2432 8.32905 57.2432 8.57422C57.2432 8.81939 57.1954 9.06241 57.1016 9.28892C57.0078 9.51523 56.8701 9.72058 56.697 9.89383C56.5236 10.0672 56.3179 10.2053 56.0914 10.2992C55.8648 10.393 55.6218 10.4407 55.3767 10.4407L54.4327 10.44C54.4419 10.4603 54.4518 10.4802 54.4603 10.5008C54.5541 10.7272 54.6025 10.9698 54.6026 11.2148C54.6026 11.4599 54.5548 11.7031 54.461 11.9295C54.3672 12.156 54.229 12.3618 54.0557 12.5351C53.8823 12.7085 53.6766 12.8466 53.4501 12.9405C53.2236 13.0342 52.9804 13.082 52.7354 13.082H51.7921C51.8011 13.1019 51.8113 13.1212 51.8197 13.1414C51.9135 13.3679 51.9612 13.611 51.9613 13.8561C51.9613 14.1013 51.9135 14.3443 51.8197 14.5708C51.7259 14.7973 51.5877 15.0031 51.4144 15.1764C51.2411 15.3496 51.0358 15.4873 50.8095 15.5811C50.5829 15.6749 50.3399 15.7226 50.0948 15.7226L50.0941 15.7233L45.5863 15.7219L40.8485 20.4597C41.9732 21.6599 42.2363 23.6098 41.2559 25.1802Z" fill="#00B3FF" stroke="#F1F5F7" stroke-width="1.86408"/>
</svg>
