<svg width="16" height="16" viewBox="0 0 16 16" fill="none" xmlns="http://www.w3.org/2000/svg">
<path opacity="0.5" d="M8.00001 13.3332C6.58552 13.3332 5.22896 12.7713 4.22877 11.7711C3.22858 10.7709 2.66667 9.41433 2.66667 7.99984C2.66667 6.58535 3.22858 5.2288 4.22877 4.2286C5.22896 3.22841 6.58552 2.6665 8.00001 2.6665V13.3332Z" fill="#00315C"/>
<path fill-rule="evenodd" clip-rule="evenodd" d="M10.98 5.64672C10.8864 5.74047 10.8338 5.86755 10.8338 6.00005C10.8338 6.13255 10.8864 6.25963 10.98 6.35338L12.1267 7.50005H6.66667C6.53406 7.50005 6.40689 7.55273 6.31312 7.6465C6.21935 7.74026 6.16667 7.86744 6.16667 8.00005C6.16667 8.13266 6.21935 8.25983 6.31312 8.3536C6.40689 8.44737 6.53406 8.50005 6.66667 8.50005H12.1267L10.98 9.64672C10.9309 9.69249 10.8915 9.74769 10.8642 9.80902C10.8368 9.87036 10.8221 9.93657 10.8209 10.0037C10.8198 10.0708 10.8321 10.1375 10.8573 10.1998C10.8824 10.262 10.9198 10.3186 10.9673 10.3661C11.0148 10.4136 11.0713 10.451 11.1336 10.4761C11.1959 10.5013 11.2626 10.5136 11.3297 10.5124C11.3968 10.5113 11.463 10.4966 11.5244 10.4692C11.5857 10.4419 11.6409 10.4025 11.6867 10.3534L13.6867 8.35338C13.7803 8.25963 13.8329 8.13255 13.8329 8.00005C13.8329 7.86755 13.7803 7.74047 13.6867 7.64672L11.6867 5.64672C11.5929 5.55308 11.4658 5.50049 11.3333 5.50049C11.2008 5.50049 11.0738 5.55308 10.98 5.64672Z" fill="#00315C"/>
</svg>
