<svg width="121" height="23" viewBox="0 0 121 23" fill="none" xmlns="http://www.w3.org/2000/svg">
<path d="M4.51205 0.864082C5.04005 0.864082 5.48805 1.04808 5.85605 1.41608C6.22405 1.78408 6.40805 2.22408 6.40805 2.73608C6.40805 3.24808 6.22405 3.68808 5.85605 4.05608C5.48805 4.42408 5.04005 4.60808 4.51205 4.60808C4.00005 4.60808 3.56005 4.42408 3.19205 4.05608C2.82405 3.68808 2.64005 3.24808 2.64005 2.73608C2.64005 2.20808 2.82405 1.76808 3.19205 1.41608C3.56005 1.04808 4.00005 0.864082 4.51205 0.864082ZM8.80805 0.864082C9.33605 0.864082 9.78405 1.04808 10.1521 1.41608C10.5201 1.78408 10.7041 2.22408 10.7041 2.73608C10.7041 3.24808 10.5201 3.68808 10.1521 4.05608C9.78405 4.42408 9.33605 4.60808 8.80805 4.60808C8.29605 4.60808 7.85605 4.42408 7.48805 4.05608C7.13605 3.68808 6.96005 3.24808 6.96005 2.73608C6.96005 2.20808 7.13605 1.76808 7.48805 1.41608C7.85605 1.04808 8.29605 0.864082 8.80805 0.864082ZM10.7041 5.49608V13.7521C10.7041 13.8481 10.7361 13.9281 10.8001 13.9921C10.8641 14.0561 10.9601 14.0881 11.0881 14.0881H11.9041V17.1841H10.0081C9.19205 17.1841 8.44805 16.8641 7.77605 16.2241C6.99205 17.0081 6.04805 17.4001 4.94405 17.4001H4.92005H4.87205C3.27205 17.4001 2.01605 16.7361 1.10405 15.4081C0.368054 14.3681 5.37932e-05 13.1281 5.37932e-05 11.6881C5.37932e-05 9.92808 0.560054 8.47208 1.68005 7.32008C2.68805 6.28008 3.94405 5.76008 5.44805 5.76008C6.26405 5.76008 7.07205 5.92808 7.87205 6.26408L8.85605 5.49608H10.7041ZM6.98405 9.12008C6.60005 9.02408 6.24005 8.97608 5.90405 8.97608C5.20005 8.97608 4.64805 9.21608 4.24805 9.69608C3.84805 10.1761 3.64805 10.8401 3.64805 11.6881C3.64805 12.4881 3.86405 13.1441 4.29605 13.6561C4.74405 14.1681 5.32005 14.4241 6.02405 14.4241C6.29605 14.4241 6.61605 14.3841 6.98405 14.3041V9.12008ZM25.3885 0.864082C25.9005 0.864082 26.3405 1.04808 26.7085 1.41608C27.0765 1.76808 27.2605 2.20808 27.2605 2.73608C27.2605 3.24808 27.0765 3.68808 26.7085 4.05608C26.3405 4.42408 25.9005 4.60808 25.3885 4.60808C24.8605 4.60808 24.4125 4.42408 24.0445 4.05608C23.6925 3.68808 23.5165 3.24808 23.5165 2.73608C23.5165 2.22408 23.6925 1.78408 24.0445 1.41608C24.4125 1.04808 24.8605 0.864082 25.3885 0.864082ZM19.7485 9.09608C21.7805 6.92008 24.1805 5.83208 26.9485 5.83208C28.9325 5.83208 30.5885 6.42408 31.9165 7.60808C33.1485 8.71208 33.7645 10.1121 33.7645 11.8081V13.1521C33.7645 13.3441 33.7725 13.6561 33.7885 14.0881H34.5325V17.1841H34.0765L33.1645 16.0801H33.1165C32.5085 16.8161 31.7325 17.1841 30.7885 17.1841H11.7325V14.0881H16.0525V6.14408H19.7485V9.09608ZM30.0685 12.2161C30.0525 11.1761 29.6365 10.3521 28.8205 9.74408C28.1485 9.24808 27.3725 9.00008 26.4925 9.00008C24.5725 9.00008 22.8125 9.94408 21.2125 11.8321C21.1165 11.9921 20.9485 12.2401 20.7085 12.5761C20.2605 13.2321 19.9325 13.7361 19.7245 14.0881H29.7085C29.9485 14.0881 30.0685 13.9761 30.0685 13.7521V12.2161ZM42.3891 6.14408V14.2081C42.3891 14.9121 42.1571 15.5441 41.6931 16.1041C41.0851 16.8241 40.3171 17.1841 39.3891 17.1841H34.3731V14.0881H38.3331C38.4291 14.0881 38.5091 14.0641 38.5731 14.0161C38.6531 13.9521 38.6931 13.8641 38.6931 13.7521V6.14408H42.3891ZM40.0611 18.2881C40.5731 18.2881 41.0131 18.4721 41.3811 18.8401C41.7491 19.2081 41.9331 19.6561 41.9331 20.1841C41.9331 20.6961 41.7491 21.1361 41.3811 21.5041C41.0131 21.8721 40.5731 22.0561 40.0611 22.0561C39.5331 22.0561 39.0851 21.8721 38.7171 21.5041C38.3651 21.1361 38.1891 20.6961 38.1891 20.1841C38.1891 19.6561 38.3651 19.2081 38.7171 18.8401C39.0851 18.4721 39.5331 18.2881 40.0611 18.2881ZM49.4071 8.15392e-05V13.7521C49.4071 13.7841 49.4151 13.8321 49.4311 13.8961L49.4551 13.9201C49.5031 14.0321 49.5991 14.0881 49.7431 14.0881H50.6311V17.1841H48.6871C47.9031 17.1841 47.2151 16.9041 46.6231 16.3441C46.0151 15.7521 45.7111 15.0401 45.7111 14.2081V8.15392e-05H49.4071ZM57.3878 0.864082C57.9158 0.864082 58.3558 1.04808 58.7078 1.41608C59.0758 1.76808 59.2598 2.20808 59.2598 2.73608C59.2598 3.24808 59.0758 3.68808 58.7078 4.05608C58.3398 4.42408 57.8998 4.60808 57.3878 4.60808C56.8758 4.60808 56.4358 4.42408 56.0678 4.05608C55.6998 3.68808 55.5158 3.24808 55.5158 2.73608C55.5158 2.22408 55.6918 1.78408 56.0438 1.41608C56.4118 1.04808 56.8598 0.864082 57.3878 0.864082ZM61.6838 0.864082C62.2118 0.864082 62.6518 1.04808 63.0038 1.41608C63.3718 1.76808 63.5558 2.20808 63.5558 2.73608C63.5558 3.24808 63.3718 3.68808 63.0038 4.05608C62.6358 4.42408 62.1958 4.60808 61.6838 4.60808C61.1718 4.60808 60.7318 4.42408 60.3638 4.05608C59.9958 3.68808 59.8118 3.24808 59.8118 2.73608C59.8118 2.22408 59.9878 1.78408 60.3398 1.41608C60.7078 1.04808 61.1558 0.864082 61.6838 0.864082ZM54.8198 14.0881C54.3558 13.1601 54.1238 12.1761 54.1238 11.1361C54.1238 10.1761 54.3398 9.29608 54.7718 8.49608C55.2518 7.68008 55.9158 7.04008 56.7638 6.57608C57.6118 6.09608 58.5478 5.85608 59.5718 5.85608C61.1078 5.85608 62.4038 6.36808 63.4598 7.39208C64.4998 8.40008 65.0198 9.64808 65.0198 11.1361C65.0198 12.1921 64.7878 13.1761 64.3238 14.0881H65.5958V17.1841H61.8518C60.8598 17.1841 60.1158 17.0401 59.6198 16.7521H59.4758C58.9798 17.0401 58.2278 17.1841 57.2198 17.1841H50.4278V14.0881H54.8198ZM59.5478 14.0401C60.7478 13.8001 61.3478 12.9441 61.3478 11.4721C61.3318 10.7361 61.1558 10.1361 60.8198 9.67208C60.4998 9.19208 60.0758 8.95208 59.5478 8.95208C59.0358 8.95208 58.6118 9.19208 58.2758 9.67208C57.9398 10.1521 57.7718 10.7521 57.7718 11.4721C57.7718 12.9281 58.3638 13.7841 59.5478 14.0401ZM73.4204 8.15392e-05V14.2081C73.4204 14.9121 73.1964 15.5441 72.7484 16.1041C72.1404 16.8241 71.3644 17.1841 70.4204 17.1841H65.4044V14.0881H69.3644C69.4604 14.0881 69.5404 14.0641 69.6044 14.0161C69.6844 13.9521 69.7244 13.8641 69.7244 13.7521V8.15392e-05H73.4204ZM80.4383 8.15392e-05V16.2721L78.5663 17.7841H76.7423V8.15392e-05H80.4383ZM100.684 8.15392e-05V14.2081C100.684 14.9921 100.412 15.6721 99.8684 16.2481C99.2924 16.8721 98.5724 17.1841 97.7084 17.1841H88.8524L87.3404 15.3121V14.0881H92.6204L88.8284 2.95208H92.2124L96.0044 14.0881H96.6524C96.7484 14.0881 96.8364 14.0481 96.9164 13.9681C96.9644 13.9201 96.9884 13.8481 96.9884 13.7521V8.15392e-05H100.684ZM107.696 8.15392e-05V16.2721L105.824 17.7841H104V8.15392e-05H107.696ZM112.712 6.00008C113.128 5.90408 113.704 5.85608 114.44 5.85608C116.408 5.85608 117.992 6.47208 119.192 7.70408C120.264 8.80808 120.8 10.2081 120.8 11.9041V14.2081C120.8 15.0881 120.48 15.8161 119.84 16.3921C119.264 16.9201 118.592 17.1841 117.824 17.1841H110.288V14.0881H116.768C116.992 14.0881 117.104 13.9761 117.104 13.7521V12.1921C117.104 11.2161 116.8 10.4161 116.192 9.79208C115.6 9.16808 114.824 8.85608 113.864 8.85608C113.368 8.85608 112.984 8.88808 112.712 8.95208V6.00008Z" fill="url(#paint0_linear_2125_875)"/>
<defs>
<linearGradient id="paint0_linear_2125_875" x1="-1.31602" y1="8.68344" x2="122.686" y2="8.68344" gradientUnits="userSpaceOnUse">
<stop offset="0.0121" stop-color="#00315C"/>
<stop offset="1" stop-color="#00B3FF"/>
</linearGradient>
</defs>
</svg>
