<svg width="24" height="24" viewBox="0 0 24 24" fill="none" xmlns="http://www.w3.org/2000/svg">
<path opacity="0.5" d="M12 20C9.87827 20 7.84344 19.1571 6.34315 17.6569C4.84285 16.1566 4 14.1217 4 12C4 9.87827 4.84285 7.84344 6.34315 6.34315C7.84344 4.84285 9.87827 4 12 4V20Z" fill="white"/>
<path fill-rule="evenodd" clip-rule="evenodd" d="M16.47 8.46995C16.3295 8.61058 16.2507 8.8012 16.2507 8.99995C16.2507 9.1987 16.3295 9.38932 16.47 9.52995L18.19 11.25H10C9.80109 11.25 9.61032 11.329 9.46967 11.4696C9.32902 11.6103 9.25 11.801 9.25 12C9.25 12.1989 9.32902 12.3896 9.46967 12.5303C9.61032 12.6709 9.80109 12.75 10 12.75H18.19L16.47 14.47C16.3963 14.5386 16.3372 14.6214 16.2962 14.7134C16.2552 14.8054 16.2332 14.9047 16.2314 15.0054C16.2296 15.1061 16.2482 15.2062 16.2859 15.2995C16.3236 15.3929 16.3797 15.4778 16.451 15.549C16.5222 15.6202 16.607 15.6764 16.7004 15.7141C16.7938 15.7518 16.8938 15.7703 16.9945 15.7685C17.0952 15.7668 17.1945 15.7447 17.2865 15.7037C17.3785 15.6627 17.4613 15.6036 17.53 15.53L20.53 12.53C20.6705 12.3893 20.7493 12.1987 20.7493 12C20.7493 11.8012 20.6705 11.6106 20.53 11.47L17.53 8.46995C17.3894 8.3295 17.1988 8.25061 17 8.25061C16.8012 8.25061 16.6106 8.3295 16.47 8.46995Z" fill="white"/>
</svg>
