<svg width="57" height="34" viewBox="0 0 57 34" fill="none" xmlns="http://www.w3.org/2000/svg">
<path d="M55.1328 13.8129C55.1632 14.6622 54.8674 15.5102 54.2703 16.1667C53.3127 17.2168 51.795 17.5417 50.4926 16.9738L45.4799 14.7785L41.9809 13.2462L41.549 13.056C41.3997 12.9913 41.2637 12.9094 41.1408 12.813C40.8938 12.6254 40.7063 12.385 40.5821 12.1156C40.4553 11.8501 40.3932 11.5555 40.3985 11.2623C40.4051 10.8185 40.5663 10.3733 40.8978 10.0088C41.0378 9.85557 41.199 9.72744 41.3746 9.6297C41.7247 9.43421 42.1262 9.35099 42.5278 9.3959C42.5806 9.40251 42.8421 9.5095 43.1961 9.66668C44.1722 10.0973 45.8722 10.8911 46.0109 10.9545L46.6145 11.2319L51.0593 13.2674L52.1754 13.7812C53.4633 14.3703 54.9387 13.1049 54.5635 11.7946C54.5556 11.7655 54.5477 11.7378 54.5371 11.7088L54.6653 12.0614L54.767 12.3441C54.8224 12.4947 54.8449 12.5435 54.8911 12.6849C54.9136 12.7483 54.9374 12.8077 54.9585 12.8685C55.0417 13.1155 55.0945 13.3651 55.1196 13.6187C55.1262 13.6835 55.1302 13.7495 55.1315 13.8129H55.1328Z" fill="url(#paint0_linear_2246_796)"/>
<path d="M49.6737 3.20497C49.6644 3.21025 49.6552 3.21289 49.6459 3.21686C49.6195 3.23139 49.5957 3.24988 49.5693 3.26573C49.3527 3.39782 49.1651 3.58274 49.0264 3.82182C48.9657 3.92485 48.9115 4.0358 48.8719 4.15864L48.8125 4.3462L48.5192 5.26553L50.0409 10.0339L50.0884 10.1858L51.0593 13.27L52.1767 13.7825C53.4646 14.373 54.9387 13.1076 54.5649 11.7959L54.5067 11.6255C54.5067 11.6255 54.5067 11.6255 54.5067 11.6242L54.3165 11.0681L51.8993 3.95655C51.8993 3.95655 51.898 3.95258 51.8967 3.95126V3.95655C51.4687 3.04779 50.4345 2.81795 49.6737 3.20497Z" fill="url(#paint1_linear_2246_796)"/>
<path d="M51.8967 3.95126C51.4648 3.04646 50.4332 2.81795 49.6737 3.20365C49.6658 3.21025 49.6552 3.21157 49.6473 3.21818C49.6208 3.23007 49.5957 3.2512 49.5693 3.26441C49.3527 3.3965 49.1665 3.58274 49.0278 3.8205C48.967 3.92485 48.9115 4.03448 48.8732 4.15732L48.8138 4.34488L46.6145 11.2332L46.6079 11.2491L45.4918 14.7441L45.4799 14.7785L45.1008 15.9712C45.0374 16.1707 44.9436 16.3516 44.8261 16.5154C44.5923 16.839 44.2594 17.0834 43.879 17.2102C43.6875 17.271 43.4854 17.3066 43.2754 17.3066C42.784 17.3066 42.3455 17.1257 42.0139 16.8337C41.792 16.6383 41.619 16.3939 41.5041 16.1205C41.3918 15.8497 41.339 15.5472 41.3654 15.2408C41.3773 15.0862 41.4077 14.9304 41.4618 14.7745L45.3795 3.25384C45.8365 1.90919 47.0993 1.00439 48.5192 1.00439C49.4055 1.00439 50.2337 1.35707 50.8387 1.95014C51.2032 2.30678 51.4872 2.74927 51.6603 3.25384L51.8597 3.84427L51.8967 3.95258L51.8967 3.95126Z" fill="url(#paint2_linear_2246_796)"/>
<path d="M34.5758 14.2831V2.79814C34.5758 1.80749 33.7727 1.00439 32.782 1.00439H32.642C31.6514 1.00439 30.8483 1.80749 30.8483 2.79814V15.5142C30.8483 16.5048 31.6514 17.3079 32.642 17.3079H37.5993C35.9297 17.3079 34.5758 15.954 34.5758 14.2845V14.2831Z" fill="url(#paint3_linear_2246_796)"/>
<path d="M38.6044 13.7204H34.5758V14.2831C34.5758 15.9527 35.9297 17.3066 37.5993 17.3066H38.6044C38.6665 17.3066 38.7273 17.304 38.788 17.2974C39.6321 17.2115 40.3031 16.5405 40.3889 15.6965C40.3955 15.6357 40.3982 15.575 40.3982 15.5129C40.3982 14.5222 39.5951 13.7191 38.6044 13.7191V13.7204Z" fill="url(#paint4_linear_2246_796)"/>
<path d="M7.08069 4.6117C9.38562 4.81776 10.9403 6.53621 10.9403 9.15551C10.9403 11.9505 9.17032 13.7204 6.60782 13.7204H3.81285V14.513C3.81285 16.0571 5.06372 17.3079 6.60782 17.3079C10.5216 17.3079 13.6217 14.6226 14.3574 10.8845C13.6388 7.44101 10.6827 4.82568 7.08069 4.61302V4.6117Z" fill="url(#paint5_linear_2246_796)"/>
<path d="M6.60782 1.00439H1.80116C1.32829 1.00439 0.899007 1.19592 0.588602 1.50633C0.278197 1.81673 0.0866699 2.24469 0.0866699 2.71889V8.31675C0.0866699 6.25883 1.75493 4.59057 3.81285 4.59057H6.60782C6.76897 4.59057 6.92615 4.59717 7.08069 4.6117C10.684 4.82436 13.6388 7.44101 14.3574 10.8832C14.4115 10.6111 14.4512 10.3337 14.4802 10.0511C14.4802 10.0458 14.4815 10.0392 14.4829 10.0339C14.5106 9.74594 14.5265 9.45402 14.5265 9.15551C14.5265 4.54301 11.1028 1.00439 6.60782 1.00439Z" fill="url(#paint6_linear_2246_796)"/>
<path d="M3.81285 14.5116V4.59057C1.75493 4.59057 0.0866699 6.25883 0.0866699 8.31675V15.5921C0.0866699 15.9474 0.194982 16.2777 0.379904 16.5511C0.441985 16.6422 0.511991 16.7268 0.588602 16.8047C0.743144 16.9592 0.928066 17.0847 1.13412 17.1719C1.33886 17.2591 1.56473 17.3066 1.80116 17.3066H6.60782C5.06372 17.3066 3.81285 16.0557 3.81285 14.5116Z" fill="url(#paint7_linear_2246_796)"/>
<path d="M24.3316 3.20497C24.3224 3.21025 24.3131 3.21289 24.3039 3.21686C24.2775 3.23139 24.2537 3.24988 24.2273 3.26573C24.0106 3.39782 23.8231 3.58274 23.6844 3.82182C23.6236 3.92485 23.5695 4.0358 23.5298 4.15864L23.4704 4.3462L23.1772 5.26553L24.6988 10.0339L24.7464 10.1858L25.7172 13.27L26.8347 13.7825C28.1225 14.373 29.5966 13.1076 29.2228 11.7959L29.1647 11.6255C29.1647 11.6255 29.1647 11.6255 29.1647 11.6242L28.9745 11.0681L26.5573 3.95655C26.5573 3.95655 26.556 3.95258 26.5546 3.95126V3.95655C26.1267 3.04779 25.0924 2.81795 24.3316 3.20497Z" fill="url(#paint8_linear_2246_796)"/>
<path d="M29.7895 13.8129C29.8198 14.6622 29.524 15.5102 28.9269 16.1667C27.9693 17.2168 26.4516 17.5417 25.1492 16.9738L20.1365 14.7785L16.6375 13.2462L16.2056 13.056C16.0563 12.9913 15.9203 12.9094 15.7975 12.813C15.5504 12.6254 15.3629 12.385 15.2387 12.1156C15.1119 11.8501 15.0498 11.5555 15.0551 11.2623C15.0617 10.8185 15.2229 10.3733 15.5544 10.0088C15.6944 9.85557 15.8556 9.72744 16.0312 9.6297C16.3813 9.43421 16.7828 9.35099 17.1844 9.3959C17.2372 9.40251 17.4987 9.5095 17.8527 9.66668C18.8289 10.0973 20.5288 10.8911 20.6675 10.9545L21.2712 11.2319L25.7159 13.2674L26.832 13.7812C28.1199 14.3703 29.5953 13.1049 29.2202 11.7946C29.2122 11.7655 29.2043 11.7378 29.1938 11.7088L29.3219 12.0614L29.4236 12.3441C29.4791 12.4947 29.5015 12.5435 29.5477 12.6849C29.5702 12.7483 29.594 12.8077 29.6151 12.8685C29.6983 13.1155 29.7512 13.3651 29.7763 13.6187C29.7829 13.6835 29.7868 13.7495 29.7881 13.8129H29.7895Z" fill="url(#paint9_linear_2246_796)"/>
<path d="M26.5533 3.95126C26.1214 3.04646 25.0898 2.81795 24.3303 3.20365C24.3224 3.21025 24.3118 3.21157 24.3039 3.21818C24.2775 3.23007 24.2524 3.2512 24.2259 3.26441C24.0093 3.3965 23.8231 3.58274 23.6844 3.8205C23.6236 3.92485 23.5681 4.03448 23.5298 4.15732L23.4704 4.34488L21.2711 11.2332L21.2645 11.2491L20.1484 14.7441L20.1365 14.7785L19.7574 15.9712C19.694 16.1707 19.6002 16.3516 19.4827 16.5154C19.2489 16.839 18.916 17.0834 18.5356 17.2102C18.3441 17.271 18.142 17.3066 17.932 17.3066C17.4406 17.3066 17.0021 17.1257 16.6705 16.8337C16.4486 16.6383 16.2756 16.3939 16.1607 16.1205C16.0484 15.8497 15.9956 15.5472 16.022 15.2408C16.0339 15.0862 16.0643 14.9304 16.1184 14.7745L20.0361 3.25384C20.4932 1.90919 21.7559 1.00439 23.1758 1.00439C24.0622 1.00439 24.8903 1.35707 25.4953 1.95014C25.8599 2.30678 26.1439 2.74927 26.3169 3.25384L26.5163 3.84427L26.5533 3.95258V3.95126Z" fill="url(#paint10_linear_2246_796)"/>
<path d="M2.65928 24.2881C2.90405 24.2881 3.11174 24.3724 3.28233 24.541C3.45293 24.7097 3.53823 24.9113 3.53823 25.146C3.53823 25.3806 3.45293 25.5823 3.28233 25.7509C3.11174 25.9196 2.90405 26.0039 2.65928 26.0039C2.42193 26.0039 2.21796 25.9196 2.04736 25.7509C1.87677 25.5823 1.79147 25.3806 1.79147 25.146C1.79147 24.904 1.87677 24.7024 2.04736 24.541C2.21796 24.3724 2.42193 24.2881 2.65928 24.2881ZM4.65081 24.2881C4.89558 24.2881 5.10326 24.3724 5.27386 24.541C5.44445 24.7097 5.52975 24.9113 5.52975 25.146C5.52975 25.3806 5.44445 25.5823 5.27386 25.7509C5.10326 25.9196 4.89558 26.0039 4.65081 26.0039C4.41346 26.0039 4.20949 25.9196 4.03889 25.7509C3.87571 25.5823 3.79412 25.3806 3.79412 25.146C3.79412 24.904 3.87571 24.7024 4.03889 24.541C4.20949 24.3724 4.41346 24.2881 4.65081 24.2881ZM5.52975 26.4109V30.1945C5.52975 30.2385 5.54459 30.2752 5.57425 30.3045C5.60392 30.3339 5.64843 30.3485 5.70777 30.3485H6.08604V31.7674H5.2071C4.82882 31.7674 4.48392 31.6207 4.1724 31.3274C3.80895 31.6867 3.37134 31.8664 2.85955 31.8664H2.82617C2.08445 31.8664 1.5022 31.5621 1.07942 30.9535C0.738223 30.4768 0.567627 29.9086 0.567627 29.2486C0.567627 28.442 0.82723 27.7747 1.34644 27.2468C1.81372 26.7702 2.39597 26.5319 3.09319 26.5319C3.47147 26.5319 3.84604 26.6089 4.2169 26.7628L4.67306 26.4109H5.52975ZM3.80525 28.0717C3.62723 28.0277 3.46035 28.0057 3.30458 28.0057C2.97823 28.0057 2.72233 28.1157 2.5369 28.3357C2.35147 28.5557 2.25875 28.86 2.25875 29.2486C2.25875 29.6153 2.35889 29.9159 2.55915 30.1505C2.76683 30.3852 3.03385 30.5025 3.36021 30.5025C3.48631 30.5025 3.63465 30.4842 3.80525 30.4475V28.0717Z" fill="url(#paint11_linear_2246_796)"/>
<path d="M12.3371 24.2881C12.5745 24.2881 12.7784 24.3724 12.949 24.541C13.1196 24.7024 13.2049 24.904 13.2049 25.146C13.2049 25.3806 13.1196 25.5823 12.949 25.7509C12.7784 25.9196 12.5745 26.0039 12.3371 26.0039C12.0923 26.0039 11.8847 25.9196 11.7141 25.7509C11.5509 25.5823 11.4693 25.3806 11.4693 25.146C11.4693 24.9113 11.5509 24.7097 11.7141 24.541C11.8847 24.3724 12.0923 24.2881 12.3371 24.2881ZM9.72254 28.0607C10.6645 27.0635 11.7771 26.5649 13.0603 26.5649C13.98 26.5649 14.7477 26.8362 15.3633 27.3788C15.9345 27.8847 16.22 28.5263 16.22 29.3036V29.9196C16.22 30.0076 16.2237 30.1505 16.2312 30.3485H16.5761V31.7674H16.3647L15.9419 31.2614H15.9196C15.6378 31.5987 15.278 31.7674 14.8404 31.7674H6.00651V30.3485H8.00916V26.7078H9.72254V28.0607ZM14.5067 29.4906C14.4992 29.014 14.3064 28.6363 13.9281 28.3577C13.6166 28.1304 13.2568 28.0167 12.8489 28.0167C11.9588 28.0167 11.1429 28.4494 10.4012 29.3146C10.3567 29.3879 10.2788 29.5016 10.1676 29.6556C9.95989 29.9562 9.80784 30.1872 9.71142 30.3485H14.3398C14.451 30.3485 14.5067 30.2972 14.5067 30.1945V29.4906Z" fill="url(#paint12_linear_2246_796)"/>
<path d="M20.2182 26.7078V30.4035C20.2182 30.7262 20.1107 31.0158 19.8956 31.2724C19.6137 31.6024 19.2577 31.7674 18.8275 31.7674H16.5022V30.3485H18.3379C18.3824 30.3485 18.4195 30.3375 18.4492 30.3155C18.4863 30.2862 18.5048 30.2459 18.5048 30.1945V26.7078H20.2182ZM19.139 32.2734C19.3764 32.2734 19.5803 32.3577 19.7509 32.5263C19.9215 32.695 20.0068 32.9003 20.0068 33.1423C20.0068 33.3769 19.9215 33.5786 19.7509 33.7472C19.5803 33.9159 19.3764 34.0002 19.139 34.0002C18.8942 34.0002 18.6866 33.9159 18.516 33.7472C18.3528 33.5786 18.2712 33.3769 18.2712 33.1423C18.2712 32.9003 18.3528 32.695 18.516 32.5263C18.6866 32.3577 18.8942 32.2734 19.139 32.2734Z" fill="url(#paint13_linear_2246_796)"/>
<path d="M23.4716 23.8921V30.1945C23.4716 30.2092 23.4753 30.2312 23.4827 30.2605L23.4938 30.2715C23.5161 30.3229 23.5606 30.3485 23.6273 30.3485H24.039V31.7674H23.1378C22.7743 31.7674 22.4554 31.6391 22.181 31.3824C21.8991 31.1111 21.7582 30.7848 21.7582 30.4035V23.8921H23.4716Z" fill="url(#paint14_linear_2246_796)"/>
<path d="M27.1712 24.2881C27.416 24.2881 27.62 24.3724 27.7832 24.541C27.9538 24.7024 28.0391 24.904 28.0391 25.146C28.0391 25.3806 27.9538 25.5823 27.7832 25.7509C27.6126 25.9196 27.4086 26.0039 27.1712 26.0039C26.9339 26.0039 26.7299 25.9196 26.5593 25.7509C26.3887 25.5823 26.3034 25.3806 26.3034 25.146C26.3034 24.9113 26.385 24.7097 26.5482 24.541C26.7188 24.3724 26.9265 24.2881 27.1712 24.2881ZM29.1628 24.2881C29.4075 24.2881 29.6115 24.3724 29.7747 24.541C29.9453 24.7024 30.0306 24.904 30.0306 25.146C30.0306 25.3806 29.9453 25.5823 29.7747 25.7509C29.6041 25.9196 29.4001 26.0039 29.1628 26.0039C28.9254 26.0039 28.7214 25.9196 28.5509 25.7509C28.3803 25.5823 28.295 25.3806 28.295 25.146C28.295 24.9113 28.3765 24.7097 28.5397 24.541C28.7103 24.3724 28.918 24.2881 29.1628 24.2881ZM25.9808 30.3485C25.7657 29.9232 25.6581 29.4723 25.6581 28.9956C25.6581 28.5557 25.7583 28.1524 25.9585 27.7857C26.181 27.4118 26.4889 27.1185 26.882 26.9058C27.2751 26.6858 27.709 26.5759 28.1837 26.5759C28.8958 26.5759 29.4965 26.8105 29.9861 27.2798C30.4682 27.7418 30.7093 28.3137 30.7093 28.9956C30.7093 29.4796 30.6017 29.9306 30.3866 30.3485H30.9763V31.7674H29.2407C28.7808 31.7674 28.4359 31.7014 28.206 31.5694H28.1392C27.9093 31.7014 27.5607 31.7674 27.0934 31.7674H23.9448V30.3485H25.9808ZM28.1726 30.3265C28.7289 30.2165 29.007 29.8242 29.007 29.1496C28.9996 28.8123 28.918 28.5373 28.7622 28.3247C28.6139 28.1047 28.4173 27.9947 28.1726 27.9947C27.9352 27.9947 27.7387 28.1047 27.5829 28.3247C27.4271 28.5447 27.3493 28.8197 27.3493 29.1496C27.3493 29.8169 27.6237 30.2092 28.1726 30.3265Z" fill="url(#paint15_linear_2246_796)"/>
<path d="M34.6036 23.8921V30.4035C34.6036 30.7262 34.4997 31.0158 34.292 31.2724C34.0102 31.6024 33.6505 31.7674 33.2128 31.7674H30.8875V30.3485H32.7233C32.7678 30.3485 32.8049 30.3375 32.8346 30.3155C32.8716 30.2862 32.8902 30.2459 32.8902 30.1945V23.8921H34.6036Z" fill="url(#paint16_linear_2246_796)"/>
<path d="M37.8569 23.8921V31.3494L36.9891 32.0424H36.1435V23.8921H37.8569Z" fill="url(#paint17_linear_2246_796)"/>
<path d="M47.2425 23.8921V30.4035C47.2425 30.7628 47.1164 31.0745 46.8642 31.3384C46.5972 31.6244 46.2635 31.7674 45.8629 31.7674H41.7575L41.0566 30.9095V30.3485H43.5042L41.7464 25.245H43.3151L45.073 30.3485H45.3734C45.4179 30.3485 45.4587 30.3302 45.4958 30.2935C45.518 30.2715 45.5291 30.2385 45.5291 30.1945V23.8921H47.2425Z" fill="url(#paint18_linear_2246_796)"/>
<path d="M50.493 23.8921V31.3494L49.6252 32.0424H48.7796V23.8921H50.493Z" fill="url(#paint19_linear_2246_796)"/>
<path d="M52.8182 26.6418C53.0111 26.5979 53.2781 26.5759 53.6193 26.5759C54.5316 26.5759 55.2659 26.8582 55.8222 27.4228C56.3192 27.9287 56.5676 28.5703 56.5676 29.3476V30.4035C56.5676 30.8068 56.4193 31.1405 56.1226 31.4044C55.8556 31.6464 55.5441 31.7674 55.188 31.7674H51.6945V30.3485H54.6985C54.8023 30.3485 54.8542 30.2972 54.8542 30.1945V29.4796C54.8542 29.0323 54.7133 28.6657 54.4315 28.3797C54.157 28.0937 53.7973 27.9507 53.3523 27.9507C53.1223 27.9507 52.9443 27.9654 52.8182 27.9947V26.6418Z" fill="url(#paint20_linear_2246_796)"/>
<defs>
<linearGradient id="paint0_linear_2246_796" x1="40.9031" y1="1.59568" x2="56.5198" y2="4.62805" gradientUnits="userSpaceOnUse">
<stop stop-color="#00315C"/>
<stop offset="1" stop-color="#00B3FF"/>
</linearGradient>
<linearGradient id="paint1_linear_2246_796" x1="51.7943" y1="17.133" x2="48.3368" y2="0.38467" gradientUnits="userSpaceOnUse">
<stop stop-color="#00315C"/>
<stop offset="1" stop-color="#00B3FF"/>
</linearGradient>
<linearGradient id="paint2_linear_2246_796" x1="49.5138" y1="1.15233" x2="43.6425" y2="17.5576" gradientUnits="userSpaceOnUse">
<stop stop-color="#00315C"/>
<stop offset="1" stop-color="#00B3FF"/>
</linearGradient>
<linearGradient id="paint3_linear_2246_796" x1="33.6604" y1="0.758712" x2="34.7037" y2="17.4414" gradientUnits="userSpaceOnUse">
<stop stop-color="#00315C"/>
<stop offset="1" stop-color="#00B3FF"/>
</linearGradient>
<linearGradient id="paint4_linear_2246_796" x1="35.0446" y1="15.6133" x2="40.3598" y2="15.2751" gradientUnits="userSpaceOnUse">
<stop stop-color="#00315C"/>
<stop offset="1" stop-color="#00B3FF"/>
</linearGradient>
<linearGradient id="paint5_linear_2246_796" x1="1.1177" y1="15.7542" x2="10.6262" y2="3.25021" gradientUnits="userSpaceOnUse">
<stop stop-color="#00315C"/>
<stop offset="1" stop-color="#00B3FF"/>
</linearGradient>
<linearGradient id="paint6_linear_2246_796" x1="13.8422" y1="9.9333" x2="-0.217606" y2="8.61146" gradientUnits="userSpaceOnUse">
<stop stop-color="#00315C"/>
<stop offset="1" stop-color="#00B3FF"/>
</linearGradient>
<linearGradient id="paint7_linear_2246_796" x1="2.08112" y1="5.15854" x2="3.43766" y2="17.3119" gradientUnits="userSpaceOnUse">
<stop stop-color="#00315C"/>
<stop offset="1" stop-color="#00B3FF"/>
</linearGradient>
<linearGradient id="paint8_linear_2246_796" x1="26.4477" y1="17.133" x2="22.9917" y2="0.385416" gradientUnits="userSpaceOnUse">
<stop stop-color="#00315C"/>
<stop offset="1" stop-color="#00B3FF"/>
</linearGradient>
<linearGradient id="paint9_linear_2246_796" x1="15.561" y1="1.59568" x2="31.1778" y2="4.62805" gradientUnits="userSpaceOnUse">
<stop stop-color="#00315C"/>
<stop offset="1" stop-color="#00B3FF"/>
</linearGradient>
<linearGradient id="paint10_linear_2246_796" x1="24.1718" y1="1.15233" x2="18.3005" y2="17.5576" gradientUnits="userSpaceOnUse">
<stop stop-color="#00315C"/>
<stop offset="1" stop-color="#00B3FF"/>
</linearGradient>
<linearGradient id="paint11_linear_2246_796" x1="0.569399" y1="28.9458" x2="56.5705" y2="28.9458" gradientUnits="userSpaceOnUse">
<stop offset="0.0121" stop-color="#00315C"/>
<stop offset="1" stop-color="#00B3FF"/>
</linearGradient>
<linearGradient id="paint12_linear_2246_796" x1="0.569399" y1="28.9458" x2="56.5705" y2="28.9458" gradientUnits="userSpaceOnUse">
<stop offset="0.0121" stop-color="#00315C"/>
<stop offset="1" stop-color="#00B3FF"/>
</linearGradient>
<linearGradient id="paint13_linear_2246_796" x1="0.569399" y1="28.9458" x2="56.5705" y2="28.9458" gradientUnits="userSpaceOnUse">
<stop offset="0.0121" stop-color="#00315C"/>
<stop offset="1" stop-color="#00B3FF"/>
</linearGradient>
<linearGradient id="paint14_linear_2246_796" x1="0.569399" y1="28.9458" x2="56.5705" y2="28.9458" gradientUnits="userSpaceOnUse">
<stop offset="0.0121" stop-color="#00315C"/>
<stop offset="1" stop-color="#00B3FF"/>
</linearGradient>
<linearGradient id="paint15_linear_2246_796" x1="0.569399" y1="28.9458" x2="56.5705" y2="28.9458" gradientUnits="userSpaceOnUse">
<stop offset="0.0121" stop-color="#00315C"/>
<stop offset="1" stop-color="#00B3FF"/>
</linearGradient>
<linearGradient id="paint16_linear_2246_796" x1="0.569399" y1="28.9458" x2="56.5705" y2="28.9458" gradientUnits="userSpaceOnUse">
<stop offset="0.0121" stop-color="#00315C"/>
<stop offset="1" stop-color="#00B3FF"/>
</linearGradient>
<linearGradient id="paint17_linear_2246_796" x1="0.569399" y1="28.9458" x2="56.5705" y2="28.9458" gradientUnits="userSpaceOnUse">
<stop offset="0.0121" stop-color="#00315C"/>
<stop offset="1" stop-color="#00B3FF"/>
</linearGradient>
<linearGradient id="paint18_linear_2246_796" x1="0.569399" y1="28.9458" x2="56.5705" y2="28.9458" gradientUnits="userSpaceOnUse">
<stop offset="0.0121" stop-color="#00315C"/>
<stop offset="1" stop-color="#00B3FF"/>
</linearGradient>
<linearGradient id="paint19_linear_2246_796" x1="0.569399" y1="28.9458" x2="56.5705" y2="28.9458" gradientUnits="userSpaceOnUse">
<stop offset="0.0121" stop-color="#00315C"/>
<stop offset="1" stop-color="#00B3FF"/>
</linearGradient>
<linearGradient id="paint20_linear_2246_796" x1="0.569399" y1="28.9458" x2="56.5705" y2="28.9458" gradientUnits="userSpaceOnUse">
<stop offset="0.0121" stop-color="#00315C"/>
<stop offset="1" stop-color="#00B3FF"/>
</linearGradient>
</defs>
</svg>
