<svg width="72" height="24" viewBox="0 0 72 24" fill="none" xmlns="http://www.w3.org/2000/svg">
<path d="M71.9973 18.0384C72.037 19.1475 71.6506 20.2549 70.871 21.1122C69.6204 22.4835 67.6385 22.9078 65.9378 22.1661L59.3917 19.2993L54.8225 17.2984L54.2584 17.05C54.0635 16.9655 53.8858 16.8586 53.7254 16.7327C53.4029 16.4877 53.1579 16.1738 52.9958 15.8219C52.8302 15.4752 52.7491 15.0906 52.756 14.7076C52.7646 14.1281 52.9751 13.5468 53.408 13.0707C53.5909 12.8706 53.8013 12.7033 54.0307 12.5756C54.4878 12.3204 55.0122 12.2117 55.5366 12.2703C55.6056 12.279 55.9471 12.4187 56.4094 12.6239C57.6841 13.1863 59.904 14.2229 60.0851 14.3057L60.8734 14.668L66.6777 17.326L68.1353 17.997C69.8171 18.7663 71.7438 17.1139 71.2539 15.4028C71.2436 15.3648 71.2332 15.3286 71.2194 15.2906L71.3867 15.7512L71.5195 16.1203C71.592 16.317 71.6213 16.3808 71.6817 16.5653C71.711 16.6481 71.7421 16.7258 71.7697 16.8051C71.8783 17.1277 71.9473 17.4537 71.9801 17.7849C71.9887 17.8694 71.9939 17.9556 71.9956 18.0384H71.9973Z" fill="url(#paint0_linear_2111_49)"/>
<path d="M64.8683 4.1857C64.8562 4.1926 64.8442 4.19605 64.8321 4.20123C64.7976 4.2202 64.7665 4.24435 64.732 4.26505C64.4491 4.43754 64.2042 4.67903 64.0231 4.99123C63.9438 5.12578 63.873 5.27067 63.8213 5.43109L63.7437 5.67602L63.3607 6.87656L65.3478 13.1035L65.4099 13.3018L66.6777 17.3295L68.137 17.9987C69.8188 18.7698 71.7438 17.1173 71.2556 15.4045L71.1797 15.182C71.1797 15.182 71.1797 15.182 71.1797 15.1802L70.9313 14.4541L67.7748 5.16718C67.7748 5.16718 67.773 5.162 67.7713 5.16028V5.16718C67.2125 3.98044 65.8618 3.68031 64.8683 4.1857Z" fill="url(#paint1_linear_2111_49)"/>
<path d="M67.7713 5.16028C67.2073 3.97871 65.8601 3.68031 64.8683 4.18398C64.858 4.1926 64.8442 4.19433 64.8338 4.20295C64.7993 4.21848 64.7665 4.24608 64.732 4.26332C64.4492 4.43582 64.2059 4.67903 64.0248 4.98951C63.9455 5.12578 63.873 5.26894 63.823 5.42936L63.7454 5.6743L60.8734 14.6697L60.8648 14.6904L59.4073 19.2545L59.3917 19.2993L58.8967 20.8569C58.8139 21.1174 58.6914 21.3537 58.5379 21.5676C58.2326 21.9902 57.7979 22.3093 57.3011 22.4749C57.051 22.5542 56.7871 22.6008 56.5129 22.6008C55.8712 22.6008 55.2985 22.3645 54.8656 21.9833C54.5758 21.728 54.3498 21.4089 54.1998 21.0518C54.0531 20.6982 53.9842 20.3032 54.0187 19.903C54.0342 19.7012 54.0739 19.4977 54.1446 19.2941L59.2606 4.24953C59.8575 2.49357 61.5065 1.31201 63.3607 1.31201C64.5182 1.31201 65.5997 1.77256 66.3897 2.54704C66.8657 3.01277 67.2366 3.59061 67.4626 4.24953L67.723 5.02056L67.7713 5.162L67.7713 5.16028Z" fill="url(#paint2_linear_2111_49)"/>
<path d="M45.1522 18.6525V3.65443C45.1522 2.36075 44.1035 1.31201 42.8098 1.31201H42.627C41.3333 1.31201 40.2845 2.36075 40.2845 3.65443V20.2601C40.2845 21.5538 41.3333 22.6025 42.627 22.6025H49.1005C46.9203 22.6025 45.1522 20.8345 45.1522 18.6542V18.6525Z" fill="url(#paint3_linear_2111_49)"/>
<path d="M50.4132 17.9177H45.1522V18.6525C45.1522 20.8328 46.9203 22.6008 49.1005 22.6008H50.4132C50.4943 22.6008 50.5736 22.5973 50.653 22.5887C51.7552 22.4766 52.6314 21.6003 52.7435 20.4981C52.7522 20.4188 52.7556 20.3394 52.7556 20.2584C52.7556 18.9647 51.7069 17.9159 50.4132 17.9159V17.9177Z" fill="url(#paint4_linear_2111_49)"/>
<path d="M9.2469 6.02273C12.2569 6.29181 14.2871 8.53591 14.2871 11.9564C14.2871 15.6063 11.9757 17.9177 8.62938 17.9177H4.97948V18.9526C4.97948 20.969 6.61297 22.6025 8.62938 22.6025C13.7403 22.6025 17.7886 19.0958 18.7494 14.2143C17.8111 9.71747 13.9507 6.30216 9.2469 6.02445V6.02273Z" fill="url(#paint5_linear_2111_49)"/>
<path d="M8.62938 1.31201H2.35245C1.73494 1.31201 1.17434 1.56212 0.76899 1.96748C0.363637 2.37283 0.113525 2.9317 0.113525 3.55094V10.8611C0.113525 8.17368 2.29208 5.99513 4.97948 5.99513H8.62938C8.83982 5.99513 9.04508 6.00375 9.2469 6.02273C13.9524 6.30044 17.8111 9.71748 18.7494 14.2126C18.8201 13.8572 18.8719 13.495 18.9098 13.1259C18.9098 13.119 18.9115 13.1104 18.9133 13.1035C18.9495 12.7274 18.9702 12.3462 18.9702 11.9564C18.9702 5.93303 14.4992 1.31201 8.62938 1.31201Z" fill="url(#paint6_linear_2111_49)"/>
<path d="M4.97948 18.9509V5.99513C2.29208 5.99513 0.113525 8.17368 0.113525 10.8611V20.3619C0.113525 20.8259 0.254968 21.2571 0.496455 21.6141C0.577525 21.7332 0.668945 21.8436 0.76899 21.9453C0.970803 22.1471 1.21229 22.311 1.48138 22.4249C1.74874 22.5387 2.04369 22.6008 2.35245 22.6008H8.62938C6.61297 22.6008 4.97948 20.9673 4.97948 18.9509Z" fill="url(#paint7_linear_2111_49)"/>
<path d="M31.7746 4.1857C31.7625 4.1926 31.7504 4.19605 31.7383 4.20123C31.7039 4.2202 31.6728 4.24435 31.6383 4.26505C31.3554 4.43754 31.1105 4.67903 30.9294 4.99123C30.85 5.12578 30.7793 5.27067 30.7276 5.43109L30.6499 5.67602L30.267 6.87656L32.2541 13.1035L32.3162 13.3018L33.584 17.3295L35.0433 17.9987C36.725 18.7698 38.65 17.1173 38.1619 15.4045L38.086 15.182C38.086 15.182 38.086 15.182 38.086 15.1802L37.8376 14.4541L34.681 5.16718C34.681 5.16718 34.6793 5.162 34.6776 5.16028V5.16718C34.1187 3.98044 32.7681 3.68031 31.7746 4.1857Z" fill="url(#paint8_linear_2111_49)"/>
<path d="M38.9019 18.0384C38.9416 19.1475 38.5552 20.2549 37.7755 21.1122C36.525 22.4835 34.543 22.9078 32.8423 22.1661L26.2963 19.2993L21.727 17.2984L21.163 17.05C20.968 16.9655 20.7904 16.8586 20.63 16.7327C20.3074 16.4877 20.0625 16.1738 19.9003 15.8219C19.7347 15.4752 19.6537 15.0906 19.6606 14.7076C19.6692 14.1281 19.8796 13.5468 20.3126 13.0707C20.4954 12.8706 20.7059 12.7033 20.9353 12.5756C21.3924 12.3204 21.9167 12.2117 22.4411 12.2703C22.5101 12.279 22.8516 12.4187 23.3139 12.6239C24.5886 13.1863 26.8086 14.2229 26.9897 14.3057L27.778 14.668L33.5823 17.326L35.0398 17.997C36.7216 18.7663 38.6483 17.1139 38.1584 15.4028C38.1481 15.3648 38.1377 15.3286 38.1239 15.2906L38.2913 15.7512L38.4241 16.1203C38.4965 16.317 38.5259 16.3808 38.5862 16.5653C38.6155 16.6481 38.6466 16.7258 38.6742 16.8051C38.7829 17.1277 38.8519 17.4537 38.8846 17.7849C38.8933 17.8694 38.8984 17.9556 38.9002 18.0384H38.9019Z" fill="url(#paint9_linear_2111_49)"/>
<path d="M34.6759 5.16028C34.1118 3.97872 32.7647 3.68031 31.7728 4.18398C31.7625 4.1926 31.7487 4.19433 31.7383 4.20295C31.7038 4.21848 31.6711 4.24608 31.6366 4.26332C31.3537 4.43582 31.1105 4.67903 30.9294 4.98951C30.85 5.12578 30.7776 5.26894 30.7276 5.42936L30.6499 5.6743L27.778 14.6697L27.7693 14.6904L26.3118 19.2545L26.2963 19.2993L25.8012 20.8569C25.7184 21.1174 25.596 21.3537 25.4424 21.5676C25.1371 21.9902 24.7025 22.3093 24.2057 22.4749C23.9556 22.5542 23.6917 22.6008 23.4174 22.6008C22.7757 22.6008 22.2031 22.3645 21.7701 21.9833C21.4803 21.728 21.2544 21.4089 21.1043 21.0518C20.9577 20.6982 20.8887 20.3032 20.9232 19.903C20.9387 19.7012 20.9784 19.4977 21.0491 19.2941L26.1652 4.24953C26.762 2.49357 28.411 1.31201 30.2653 1.31201C31.4227 1.31201 32.5042 1.77256 33.2942 2.54704C33.7703 3.01277 34.1411 3.59061 34.3671 4.24953L34.6276 5.02056L34.6759 5.162V5.16028Z" fill="url(#paint10_linear_2111_49)"/>
<defs>
<linearGradient id="paint0_linear_2111_49" x1="53.4149" y1="2.08416" x2="73.8086" y2="6.04408" gradientUnits="userSpaceOnUse">
<stop stop-color="#00315C"/>
<stop offset="1" stop-color="#00B3FF"/>
</linearGradient>
<linearGradient id="paint1_linear_2111_49" x1="67.6376" y1="22.3741" x2="63.1226" y2="0.502724" gradientUnits="userSpaceOnUse">
<stop stop-color="#00315C"/>
<stop offset="1" stop-color="#00B3FF"/>
</linearGradient>
<linearGradient id="paint2_linear_2111_49" x1="64.6596" y1="1.5052" x2="56.9924" y2="22.9285" gradientUnits="userSpaceOnUse">
<stop stop-color="#00315C"/>
<stop offset="1" stop-color="#00B3FF"/>
</linearGradient>
<linearGradient id="paint3_linear_2111_49" x1="43.9568" y1="0.991179" x2="45.3193" y2="22.7769" gradientUnits="userSpaceOnUse">
<stop stop-color="#00315C"/>
<stop offset="1" stop-color="#00B3FF"/>
</linearGradient>
<linearGradient id="paint4_linear_2111_49" x1="45.7645" y1="20.3895" x2="52.7055" y2="19.9479" gradientUnits="userSpaceOnUse">
<stop stop-color="#00315C"/>
<stop offset="1" stop-color="#00B3FF"/>
</linearGradient>
<linearGradient id="paint5_linear_2111_49" x1="1.45992" y1="20.5736" x2="13.8769" y2="4.24478" gradientUnits="userSpaceOnUse">
<stop stop-color="#00315C"/>
<stop offset="1" stop-color="#00B3FF"/>
</linearGradient>
<linearGradient id="paint6_linear_2111_49" x1="18.0767" y1="12.9721" x2="-0.283823" y2="11.2459" gradientUnits="userSpaceOnUse">
<stop stop-color="#00315C"/>
<stop offset="1" stop-color="#00B3FF"/>
</linearGradient>
<linearGradient id="paint7_linear_2111_49" x1="2.71805" y1="6.73684" x2="4.48953" y2="22.6077" gradientUnits="userSpaceOnUse">
<stop stop-color="#00315C"/>
<stop offset="1" stop-color="#00B3FF"/>
</linearGradient>
<linearGradient id="paint8_linear_2111_49" x1="34.538" y1="22.3741" x2="30.0248" y2="0.503699" gradientUnits="userSpaceOnUse">
<stop stop-color="#00315C"/>
<stop offset="1" stop-color="#00B3FF"/>
</linearGradient>
<linearGradient id="paint9_linear_2111_49" x1="20.3212" y1="2.08416" x2="40.7148" y2="6.04407" gradientUnits="userSpaceOnUse">
<stop stop-color="#00315C"/>
<stop offset="1" stop-color="#00B3FF"/>
</linearGradient>
<linearGradient id="paint10_linear_2111_49" x1="31.5658" y1="1.5052" x2="23.8986" y2="22.9285" gradientUnits="userSpaceOnUse">
<stop stop-color="#00315C"/>
<stop offset="1" stop-color="#00B3FF"/>
</linearGradient>
</defs>
</svg>
